<svg width="200" height="150" viewBox="0 0 200 150" fill="none" xmlns="http://www.w3.org/2000/svg">
<path opacity="0.11" d="M128.38 122.787H124.583V122.682C124.583 122.207 124.213 121.838 123.739 121.838H77.0352C76.5607 121.838 76.1915 121.838 76.1915 121.838L69.7832 123.789L76.1915 125.741C76.1915 125.741 76.5607 125.741 77.0352 125.741H120.469L120.574 127.033H107.178C106.861 127.033 106.571 127.297 106.571 127.64C106.571 127.956 106.835 128.246 107.178 128.246H121.814C122.13 128.246 122.42 127.983 122.42 127.64C122.42 127.323 122.157 127.033 121.814 127.033H121.761V125.741H123.765C124.24 125.741 124.609 125.372 124.609 124.897V124.791H128.407C128.723 124.791 128.987 124.528 128.987 124.211V123.394C128.96 123.051 128.723 122.787 128.38 122.787Z" fill="#020202"/>
<path opacity="0.11" d="M157.732 120.229C157.125 120.229 156.65 119.755 156.65 119.148V60.0498C156.65 59.4433 157.125 58.9685 157.732 58.9685H194.599C195.205 58.9685 195.68 59.4433 195.68 60.0498V119.148C195.68 119.755 195.205 120.229 194.599 120.229H157.732Z" fill="#020202"/>
<path opacity="0.31" d="M180.067 14.4802H99.582V137.133H180.067V14.4802Z" fill="white" fill-opacity="0.3"/>
<path opacity="0.11" d="M32.2844 16.4239L14.5137 16.7586L14.821 33.0793L32.5917 32.7445L32.2844 16.4239Z" fill="#020202"/>
<path d="M32.0448 15.113H14.666V32.4917H32.0448V15.113Z" fill="#9F8AFF"/>
<path d="M193.331 116.801C193.331 117.223 192.989 117.592 192.567 117.592L160.262 118.172C159.84 118.172 159.497 117.829 159.471 117.407L158.469 62.8715C158.469 62.4495 158.812 62.0805 159.234 62.0805L191.512 61.5002H191.538C191.96 61.5002 192.303 61.843 192.303 62.265L193.331 116.801Z" fill="white" fill-opacity="0.3"/>
<path d="M32.0722 15.1659L29.6725 32.3865L13.6914 30.1712L14.7199 14.0583L31.914 15.1396L32.0722 15.1659Z" fill="white" fill-opacity="0.3"/>
<path fill-rule="evenodd" clip-rule="evenodd" d="M144.221 11.388V9.48925H127.159V11.388H144.221ZM31.9386 15.1396L29.5916 29.301C29.4333 30.224 28.8796 30.9887 28.0621 31.4107L26.9016 31.991L24.1946 31.623L26.8753 32.0173L26.4533 32.2282H26.4271L24.1862 31.6217H24.1855L11.1317 28.1935L11.6327 27.745C12.292 27.165 12.7139 26.3738 12.8458 25.5035L14.7182 12.7398L31.9386 15.1396ZM164.798 43.172L147.63 59.9705C146.971 60.6297 145.705 61.131 144.782 61.131H53.7221C52.8253 61.131 51.5596 60.6035 50.8738 59.9705L33.7061 43.172C32.9413 42.4338 32.6248 41.748 32.8096 41.326C32.9151 41.0623 33.2316 40.904 33.7588 40.904H164.772C165.299 40.904 165.589 41.0623 165.695 41.326C165.853 41.748 165.563 42.4338 164.798 43.172ZM73.4736 72.7607H69.7553C69.5971 72.7607 69.4916 72.8662 69.4916 73.0245V76.743C69.4916 76.9012 69.5971 77.0068 69.7553 77.0068H73.4736C73.6318 77.0068 73.7373 76.9012 73.7373 76.743V73.0245C73.7373 72.8927 73.6056 72.7607 73.4736 72.7607ZM79.7761 72.7607H76.0576C75.8993 72.7607 75.7938 72.8662 75.7938 73.0245V76.743C75.7938 76.9012 75.8993 77.0068 76.0576 77.0068H79.7761C79.9343 77.0068 80.0396 76.9012 80.0396 76.743V73.0245C80.0396 72.8927 79.9078 72.7607 79.7761 72.7607ZM86.0793 77.033H82.3611C82.2028 77.033 82.0973 76.9012 82.0973 76.743V73.0245C82.0973 72.8662 82.2028 72.7607 82.3611 72.7607H86.0793C86.2376 72.7607 86.3431 72.8662 86.3431 73.0245V76.7692C86.3431 76.9275 86.2376 77.033 86.0793 77.033ZM88.6633 77.033H92.3816C92.5398 77.033 92.6453 76.9275 92.6453 76.7692V73.0245C92.6453 72.8662 92.5398 72.7607 92.3816 72.7607H88.6633C88.5051 72.7607 88.3996 72.8662 88.3996 73.0245V76.743C88.3996 76.9012 88.5051 77.033 88.6633 77.033ZM98.6851 77.033H94.9666C94.8083 77.033 94.7031 76.9012 94.7031 76.743V73.0245C94.7031 72.8662 94.8083 72.7607 94.9666 72.7607H98.6851C98.8433 72.7607 98.9488 72.8662 98.9488 73.0245V76.7692C98.9488 76.9275 98.8433 77.033 98.6851 77.033ZM101.269 77.033H104.987C105.146 77.033 105.251 76.9275 105.251 76.7692V73.0245C105.251 72.8662 105.146 72.7607 104.987 72.7607H101.269C101.111 72.7607 101.005 72.8662 101.005 73.0245V76.743C101.005 76.9012 101.111 77.033 101.269 77.033ZM107.598 72.7607H111.317C111.448 72.7607 111.58 72.8927 111.58 73.0245V76.743C111.58 76.9012 111.475 77.0068 111.317 77.0068H107.598C107.44 77.0068 107.334 76.9012 107.334 76.743V73.0245C107.334 72.8662 107.44 72.7607 107.598 72.7607ZM117.619 72.7607H113.901C113.742 72.7607 113.637 72.8662 113.637 73.0245V76.743C113.637 76.9012 113.742 77.0068 113.901 77.0068H117.619C117.777 77.0068 117.883 76.9012 117.883 76.743V73.0245C117.883 72.8927 117.751 72.7607 117.619 72.7607ZM120.204 72.7607H123.922C124.054 72.7607 124.186 72.8927 124.186 73.0245V76.743C124.186 76.9012 124.08 77.0068 123.922 77.0068H120.204C120.046 77.0068 119.94 76.9012 119.94 76.743V73.0245C119.94 72.8662 120.046 72.7607 120.204 72.7607ZM130.225 72.7607H126.506C126.348 72.7607 126.242 72.8662 126.242 73.0245V76.743C126.242 76.9012 126.348 77.0068 126.506 77.0068H130.225C130.383 77.0068 130.488 76.9012 130.488 76.743V73.0245C130.488 72.8927 130.356 72.7607 130.225 72.7607ZM76.0576 79.1425H79.7761C79.9078 79.1425 80.0396 79.2742 80.0396 79.4062V83.1245C80.0396 83.2827 79.9343 83.3883 79.7761 83.3883H76.0576C75.8993 83.3883 75.7938 83.2827 75.7938 83.1245V79.4062C75.7938 79.248 75.8993 79.1425 76.0576 79.1425ZM82.3611 83.415H86.0793C86.2376 83.415 86.3431 83.3095 86.3431 83.1513V79.433C86.3431 79.2747 86.2376 79.1693 86.0793 79.1693H82.3611C82.2028 79.1693 82.0973 79.2747 82.0973 79.433V83.1513C82.0973 83.2833 82.2028 83.415 82.3611 83.415ZM92.3816 83.415H88.6633C88.5051 83.415 88.3996 83.2833 88.3996 83.1513V79.433C88.3996 79.2747 88.5051 79.1693 88.6633 79.1693H92.3816C92.5398 79.1693 92.6453 79.2747 92.6453 79.433V83.1513C92.6453 83.3095 92.5398 83.415 92.3816 83.415ZM94.9666 83.415H98.6851C98.8433 83.415 98.9488 83.3095 98.9488 83.1513V79.433C98.9488 79.2747 98.8433 79.1693 98.6851 79.1693H94.9666C94.8083 79.1693 94.7031 79.2747 94.7031 79.433V83.1513C94.7031 83.2833 94.8083 83.415 94.9666 83.415ZM104.987 83.415H101.269C101.111 83.415 101.005 83.2833 101.005 83.1513V79.433C101.005 79.2747 101.111 79.1693 101.269 79.1693H104.987C105.146 79.1693 105.251 79.2747 105.251 79.433V83.1513C105.251 83.3095 105.146 83.415 104.987 83.415ZM111.317 79.1425H107.598C107.44 79.1425 107.334 79.248 107.334 79.4062V83.1245C107.334 83.2827 107.44 83.3883 107.598 83.3883H111.317C111.475 83.3883 111.58 83.2827 111.58 83.1245V79.4062C111.58 79.2742 111.448 79.1425 111.317 79.1425ZM113.901 79.1425H117.619C117.751 79.1425 117.883 79.2742 117.883 79.4062V83.1245C117.883 83.2827 117.777 83.3883 117.619 83.3883H113.901C113.742 83.3883 113.637 83.2827 113.637 83.1245V79.4062C113.637 79.248 113.742 79.1425 113.901 79.1425ZM123.922 79.1425H120.204C120.046 79.1425 119.94 79.248 119.94 79.4062V83.1245C119.94 83.2827 120.046 83.3883 120.204 83.3883H123.922C124.08 83.3883 124.186 83.2827 124.186 83.1245V79.4062C124.186 79.2742 124.054 79.1425 123.922 79.1425ZM126.506 79.1425H130.225C130.356 79.1425 130.488 79.2742 130.488 79.4062V83.1245C130.488 83.2827 130.383 83.3883 130.225 83.3883H126.506C126.348 83.3883 126.242 83.2827 126.242 83.1245V79.4062C126.242 79.248 126.348 79.1425 126.506 79.1425ZM73.4736 85.5247H69.7553C69.5971 85.5247 69.4916 85.6302 69.4916 85.7885V89.5068C69.4916 89.665 69.5971 89.7705 69.7553 89.7705H73.4736C73.6318 89.7705 73.7373 89.665 73.7373 89.5068V85.7885C73.7373 85.6565 73.6056 85.5247 73.4736 85.5247ZM76.0576 85.5247H79.7761C79.9078 85.5247 80.0396 85.6565 80.0396 85.7885V89.5068C80.0396 89.665 79.9343 89.7705 79.7761 89.7705H76.0576C75.8993 89.7705 75.7938 89.665 75.7938 89.5068V85.7885C75.7938 85.6302 75.8993 85.5247 76.0576 85.5247ZM105.119 85.5247H82.3341C82.1761 85.5247 82.0706 85.6302 82.0706 85.7885V89.5068C82.0706 89.665 82.1761 89.7705 82.3341 89.7705H105.119C105.277 89.7705 105.383 89.665 105.383 89.5068V85.7885C105.383 85.6565 105.277 85.5247 105.119 85.5247ZM107.598 85.5247H111.317C111.448 85.5247 111.58 85.6565 111.58 85.7885V89.5068C111.58 89.665 111.475 89.7705 111.317 89.7705H107.598C107.44 89.7705 107.334 89.665 107.334 89.5068V85.7885C107.334 85.6302 107.44 85.5247 107.598 85.5247ZM117.619 85.5247H113.901C113.742 85.5247 113.637 85.6302 113.637 85.7885V89.5068C113.637 89.665 113.742 89.7705 113.901 89.7705H117.619C117.777 89.7705 117.883 89.665 117.883 89.5068V85.7885C117.883 85.6565 117.751 85.5247 117.619 85.5247ZM120.204 85.5247H123.922C124.054 85.5247 124.186 85.6565 124.186 85.7885V89.5068C124.186 89.665 124.08 89.7705 123.922 89.7705H120.204C120.046 89.7705 119.94 89.665 119.94 89.5068V85.7885C119.94 85.6302 120.046 85.5247 120.204 85.5247ZM15.6416 70.8092H39.4021V82.4655H15.6416V70.8092ZM29.2491 83.2568H15.6416V94.913H29.2491V83.2568ZM15.6416 102.481H23.9222V107.386H15.6416V102.481ZM46.9436 102.481H33.9953V107.386H46.9436V102.481ZM15.6416 95.7302H39.4021V101.558H15.6416V95.7302ZM38.9801 134.654H16.0899C15.8525 134.654 15.6416 134.47 15.6416 134.206V130.593C15.6416 130.356 15.8262 130.145 16.0899 130.145H38.9801C39.2176 130.145 39.4286 130.329 39.4286 130.593V134.206C39.4021 134.47 39.2176 134.654 38.9801 134.654ZM188.373 116.827L188.531 114.586L159.971 114.533C159.76 114.533 159.576 114.454 159.444 114.322L159.233 102.771L159.207 113.769C159.207 113.969 159.302 114.17 159.425 114.302C159.279 114.149 159.207 113.97 159.207 113.768L159.233 102.771V102.718L159.312 62.0802V61.421C159.312 60.999 159.655 60.6562 160.077 60.6562L179.618 60.709L159.549 59.206C159.127 59.1795 158.732 59.496 158.705 59.9442L156.042 95.3873L154.618 114.296C154.592 114.717 154.908 115.113 155.356 115.14L156.042 115.192L159.47 115.456L187.529 117.565C187.951 117.592 188.347 117.275 188.373 116.827ZM191.802 71.3633L192.382 63.6893V63.6815L192.461 62.5023C192.487 62.2385 192.382 62.0275 192.223 61.843C192.302 61.9737 192.354 62.1047 192.355 62.2612C192.349 62.1162 192.298 61.993 192.224 61.8695C192.118 61.764 191.987 61.685 191.828 61.6585L191.802 71.3633ZM161.396 64.5065H171.39V65.6405H161.396V64.5065ZM189.877 110.604H187.635V111.738H189.877V110.604ZM179.486 87.4232H179.512C179.565 87.4232 179.618 87.3705 179.644 87.3177C179.644 87.2385 179.618 87.186 179.539 87.1595C178.273 86.8695 174.739 86.9485 173.341 87.1595C173.262 87.186 173.236 87.2385 173.236 87.3177C173.262 87.3968 173.315 87.4232 173.394 87.4232C174.739 87.2385 178.273 87.1595 179.486 87.4232ZM180.356 73.262C179.091 72.4183 174.898 73.1565 174.238 73.3675H174.212C173.711 73.552 173.421 73.7367 173.342 73.9212C173.342 73.9345 173.335 73.9542 173.328 73.974C173.322 73.9938 173.315 74.0135 173.315 74.0267C173.342 74.2377 173.605 74.3167 173.816 74.3695C174.528 74.5015 175.32 74.4222 176.084 74.3167C176.24 74.3027 176.396 74.281 176.548 74.2598C176.679 74.2415 176.806 74.2235 176.928 74.2115C177.719 74.1588 178.959 74.3432 179.671 74.475C180.04 74.5277 180.225 74.5543 180.33 74.5543C180.515 74.5543 180.937 74.4488 181.016 74.1588C181.121 73.9478 180.884 73.6312 180.356 73.262ZM180.778 74.1322C180.752 74.2643 180.488 74.3432 180.33 74.3432C180.251 74.3432 180.014 74.3167 179.724 74.2643C179.648 74.252 179.568 74.239 179.484 74.2253C178.832 74.1188 177.945 73.974 177.245 73.974H176.902C176.612 74.0005 176.348 74.0267 176.032 74.0795C175.293 74.185 174.528 74.2643 173.869 74.1322C173.632 74.0795 173.579 74.0267 173.579 74.0267C173.579 74.0005 173.605 73.974 173.658 73.9477C173.764 73.8685 173.948 73.763 174.291 73.6312C174.476 73.5785 174.898 73.473 175.478 73.3675C176.875 73.1302 179.038 72.9455 180.014 73.3675C180.053 73.3807 180.086 73.4005 180.119 73.4202C180.152 73.44 180.185 73.4598 180.225 73.473C180.238 73.4862 180.251 73.4928 180.264 73.4993C180.277 73.506 180.291 73.5125 180.304 73.5257C180.805 73.895 180.805 74.0795 180.778 74.1322ZM178.352 105.092C179.117 105.092 179.644 104.908 179.908 104.697C179.987 104.618 180.066 104.538 180.093 104.459C180.119 104.407 180.119 104.354 180.119 104.301C180.114 104.282 180.109 104.26 180.104 104.237C180.081 104.137 180.051 104.008 179.987 103.879C179.882 103.747 179.723 103.615 179.46 103.536C178.484 103.22 176.691 103.616 176.401 103.879L176.374 103.906C176.321 103.958 176.321 104.037 176.348 104.09C176.532 104.433 178.194 104.539 178.932 104.301C178.985 104.275 179.038 104.222 179.011 104.143C178.985 104.09 178.932 104.037 178.853 104.064C178.22 104.275 177.033 104.169 176.691 104.037C176.697 104.036 176.704 104.034 176.711 104.032L176.724 104.029L176.737 104.025L176.748 104.022C176.796 104.009 176.851 103.992 176.912 103.973L176.913 103.973H176.914C176.982 103.952 177.058 103.929 177.139 103.906C177.798 103.747 178.853 103.616 179.46 103.853C179.512 103.853 179.565 103.879 179.591 103.906C179.776 104.011 179.882 104.143 179.882 104.327C179.882 104.354 179.882 104.433 179.802 104.486L179.776 104.512C179.433 104.776 178.378 105.092 176.532 104.565C176.48 104.538 176.401 104.565 176.374 104.644C176.348 104.723 176.374 104.776 176.453 104.802C177.192 105.013 177.825 105.092 178.352 105.092ZM44.2276 17.5129C44.5918 17.5129 44.8868 17.2178 44.8868 16.8536C44.8868 16.4895 44.5918 16.1944 44.2276 16.1944C43.8636 16.1944 43.5683 16.4895 43.5683 16.8536C43.5683 17.2178 43.8636 17.5129 44.2276 17.5129ZM81.4116 34.496H91.5908C92.4348 34.496 93.1468 33.784 93.1468 32.94C93.1468 32.0697 92.4348 31.3843 91.5908 31.3843H81.4116C80.5413 31.3843 79.8558 32.0962 79.8558 32.94C79.8558 33.8102 80.5678 34.496 81.4116 34.496ZM144.238 13.9631V15.8618H127.176V13.9631H144.238ZM144.229 20.3357V18.437H127.166V20.3357H144.229ZM144.219 22.9108V24.8095H127.157V22.9108H144.219ZM124.185 122.075V124.238C124.185 124.712 123.79 125.081 123.341 125.081H75.7938V121.178H123.341C123.79 121.205 124.185 121.6 124.185 122.075ZM121.786 127.402C121.918 127.297 121.971 127.139 121.971 126.98C121.971 126.743 121.812 126.506 121.601 126.427C121.549 126.4 121.469 126.374 121.39 126.374H106.754C106.596 126.374 106.438 126.453 106.332 126.559C106.201 126.664 106.148 126.822 106.148 126.98C106.148 127.323 106.411 127.587 106.728 127.587H121.364C121.522 127.587 121.68 127.508 121.786 127.402ZM102.007 104.96C102.007 106.305 100.926 107.386 99.5808 107.386C98.2358 107.386 97.1546 106.305 97.1546 104.96C97.1546 103.616 98.2358 102.534 99.5808 102.534C100.926 102.534 102.007 103.616 102.007 104.96ZM161.395 132.387L162.292 131.094L159.813 129.327L158.521 128.431L156.016 126.638L155.119 127.93L157.624 129.697L158.89 130.62L161.395 132.387ZM5.58398 104.002H7.13991V96.3012H5.58398V104.002ZM189.506 50.0182H187.95V42.3177H189.506V50.0182Z" fill="#9F8AFF"/>
<path opacity="0.11" d="M192.092 35.34H175.9C173.843 35.34 172.182 33.6785 172.182 31.6215V15.4295C172.182 13.3726 173.843 11.7112 175.9 11.7112H192.092C194.149 11.7112 195.81 13.3726 195.81 15.4295V31.6215C195.81 33.652 194.149 35.34 192.092 35.34Z" fill="#020202"/>
<path opacity="0.11" d="M144.124 118.172H55.4897C53.9602 118.172 52.7207 116.933 52.7207 115.403V64.7437C52.7207 63.2142 53.9602 61.9747 55.4897 61.9747H144.124C145.653 61.9747 146.893 63.2142 146.893 64.7437V115.403C146.919 116.933 145.679 118.172 144.124 118.172Z" fill="#020202"/>
<path fill-rule="evenodd" clip-rule="evenodd" d="M144.229 18.4359C148.307 18.4359 151.613 15.13 151.613 11.052C151.613 6.97388 148.307 3.66798 144.229 3.66798C140.15 3.66798 136.845 6.97388 136.845 11.052C136.845 15.13 140.15 18.4359 144.229 18.4359ZM191.697 34.9705H175.505C173.448 34.9705 171.787 33.3093 171.787 31.2523V15.0603C171.787 13.0033 173.448 11.3419 175.505 11.3419H191.697C193.754 11.3419 195.415 13.0033 195.415 15.0603V31.2523C195.415 33.2828 193.754 34.9705 191.697 34.9705ZM143.675 61.1312H54.8034C53.3001 61.1312 52.0609 62.3442 52.0609 63.8737V114.507C52.0609 116.01 53.2739 117.249 54.8034 117.249H143.675C145.178 117.249 146.417 116.036 146.417 114.507V63.8737C146.417 62.3442 145.204 61.1312 143.675 61.1312ZM101.006 73.0247C101.006 72.8665 101.138 72.761 101.27 72.761H105.014C105.146 72.761 105.278 72.8665 105.278 73.0247V76.743C105.278 76.9012 105.146 77.0068 105.014 77.0068H101.27C101.138 77.0068 101.006 76.9012 101.006 76.743V73.0247ZM101.006 79.4065C101.006 79.2483 101.138 79.1428 101.27 79.1428H105.014C105.146 79.1428 105.278 79.2483 105.278 79.4065V83.1247C105.278 83.283 105.146 83.3885 105.014 83.3885H101.27C101.138 83.3885 101.006 83.283 101.006 83.1247V79.4065ZM94.7031 73.0247C94.7031 72.8665 94.8351 72.761 94.9669 72.761H98.6854C98.8434 72.761 98.9489 72.8665 98.9489 73.0247V76.743C98.9489 76.9012 98.8434 77.0068 98.6854 77.0068H94.9669C94.8351 77.0068 94.7031 76.9012 94.7031 76.743V73.0247ZM94.7031 79.4065C94.7031 79.2483 94.8351 79.1428 94.9669 79.1428H98.6854C98.8434 79.1428 98.9489 79.2483 98.9489 79.4065V83.1247C98.9489 83.283 98.8434 83.3885 98.6854 83.3885H94.9669C94.8351 83.3885 94.7031 83.283 94.7031 83.1247V79.4065ZM88.4004 73.0247C88.4004 72.8665 88.5324 72.761 88.6641 72.761H92.4089C92.5406 72.761 92.6726 72.8665 92.6726 73.0247V76.743C92.6726 76.9012 92.5406 77.0068 92.4089 77.0068H88.6641C88.5324 77.0068 88.4004 76.9012 88.4004 76.743V73.0247ZM88.4004 79.4065C88.4004 79.2483 88.5324 79.1428 88.6641 79.1428H92.4089C92.5406 79.1428 92.6726 79.2483 92.6726 79.4065V83.1247C92.6726 83.283 92.5406 83.3885 92.4089 83.3885H88.6641C88.5324 83.3885 88.4004 83.283 88.4004 83.1247V79.4065ZM82.0976 73.0247C82.0976 72.8665 82.2031 72.761 82.3614 72.761H86.1061C86.2381 72.761 86.3699 72.8665 86.3699 73.0247V76.743C86.3699 76.9012 86.2381 77.0068 86.1061 77.0068H82.3614C82.2031 77.0068 82.0976 76.9012 82.0976 76.743V73.0247ZM82.0976 79.4065C82.0976 79.2483 82.2031 79.1428 82.3614 79.1428H86.1061C86.2381 79.1428 86.3699 79.2483 86.3699 79.4065V83.1247C86.3699 83.283 86.2381 83.3885 86.1061 83.3885H82.3614C82.2031 83.3885 82.0976 83.283 82.0976 83.1247V79.4065ZM73.7381 89.533C73.7381 89.6912 73.6326 89.7968 73.4744 89.7968H69.7296C69.5976 89.7968 69.4659 89.6912 69.4659 89.533V85.8148C69.4659 85.6565 69.5976 85.551 69.7296 85.551H73.4744C73.6326 85.551 73.7381 85.6565 73.7381 85.8148V89.533ZM73.7381 76.7692C73.7381 76.9275 73.6326 77.033 73.4744 77.033H69.7296C69.5976 77.033 69.4659 76.9275 69.4659 76.7692V73.0247C69.4659 72.8665 69.5976 72.761 69.7296 72.761H73.4744C73.6326 72.761 73.7381 72.8665 73.7381 73.0247V76.7692ZM80.0406 89.533C80.0406 89.6912 79.9089 89.7968 79.7771 89.7968H76.0586C75.9004 89.7968 75.7949 89.6912 75.7949 89.533V85.8148C75.7949 85.6565 75.9004 85.551 76.0586 85.551H79.7771C79.9089 85.551 80.0406 85.6565 80.0406 85.8148V89.533ZM80.0406 83.1513C80.0406 83.3095 79.9089 83.415 79.7771 83.415H76.0586C75.9004 83.415 75.7949 83.3095 75.7949 83.1513V79.4327C75.7949 79.2747 75.9004 79.1693 76.0586 79.1693H79.7771C79.9089 79.1693 80.0406 79.2747 80.0406 79.4327V83.1513ZM80.0406 76.7692C80.0406 76.9275 79.9089 77.033 79.7771 77.033H76.0586C75.9004 77.033 75.7949 76.9275 75.7949 76.7692V73.0247C75.7949 72.8665 75.9004 72.761 76.0586 72.761H79.7771C79.9089 72.761 80.0406 72.8665 80.0406 73.0247V76.7692ZM99.5819 107.386C98.2369 107.386 97.1556 106.305 97.1556 104.96C97.1556 103.615 98.2369 102.534 99.5819 102.534C100.927 102.534 102.008 103.615 102.008 104.96C102.008 106.305 100.927 107.386 99.5819 107.386ZM105.384 89.533C105.384 89.6912 105.252 89.7968 105.12 89.7968H82.3351C82.1769 89.7968 82.0714 89.6912 82.0714 89.533V85.8148C82.0714 85.6565 82.1769 85.551 82.3351 85.551H105.12C105.252 85.551 105.384 85.6565 105.384 85.8148V89.533ZM111.581 89.533C111.581 89.6912 111.475 89.7968 111.317 89.7968H107.599C107.467 89.7968 107.335 89.6912 107.335 89.533V85.8148C107.335 85.6565 107.467 85.551 107.599 85.551H111.317C111.475 85.551 111.581 85.6565 111.581 85.8148V89.533ZM111.581 83.1513C111.581 83.3095 111.475 83.415 111.317 83.415H107.599C107.467 83.415 107.335 83.3095 107.335 83.1513V79.4327C107.335 79.2747 107.467 79.1693 107.599 79.1693H111.317C111.475 79.1693 111.581 79.2747 111.581 79.4327V83.1513ZM111.581 76.7692C111.581 76.9275 111.475 77.033 111.317 77.033H107.599C107.467 77.033 107.335 76.9275 107.335 76.7692V73.0247C107.335 72.8665 107.467 72.761 107.599 72.761H111.317C111.475 72.761 111.581 72.8665 111.581 73.0247V76.7692ZM117.884 89.533C117.884 89.6912 117.778 89.7968 117.62 89.7968H113.875C113.743 89.7968 113.611 89.6912 113.611 89.533V85.8148C113.611 85.6565 113.743 85.551 113.875 85.551H117.62C117.778 85.551 117.884 85.6565 117.884 85.8148V89.533ZM117.884 83.1513C117.884 83.3095 117.778 83.415 117.62 83.415H113.875C113.743 83.415 113.611 83.3095 113.611 83.1513V79.4327C113.611 79.2747 113.743 79.1693 113.875 79.1693H117.62C117.778 79.1693 117.884 79.2747 117.884 79.4327V83.1513ZM117.884 76.7692C117.884 76.9275 117.778 77.033 117.62 77.033H113.875C113.743 77.033 113.611 76.9275 113.611 76.7692V73.0247C113.611 72.8665 113.743 72.761 113.875 72.761H117.62C117.778 72.761 117.884 72.8665 117.884 73.0247V76.7692ZM124.186 89.533C124.186 89.6912 124.081 89.7968 123.923 89.7968H120.204C120.046 89.7968 119.941 89.6912 119.941 89.533V85.8148C119.941 85.6565 120.046 85.551 120.204 85.551H123.923C124.081 85.551 124.186 85.6565 124.186 85.8148V89.533ZM124.186 83.1513C124.186 83.3095 124.081 83.415 123.923 83.415H120.204C120.046 83.415 119.941 83.3095 119.941 83.1513V79.4327C119.941 79.2747 120.046 79.1693 120.204 79.1693H123.923C124.081 79.1693 124.186 79.2747 124.186 79.4327V83.1513ZM124.186 76.7692C124.186 76.9275 124.081 77.033 123.923 77.033H120.204C120.046 77.033 119.941 76.9275 119.941 76.7692V73.0247C119.941 72.8665 120.046 72.761 120.204 72.761H123.923C124.081 72.761 124.186 72.8665 124.186 73.0247V76.7692ZM130.489 83.1513C130.489 83.3095 130.357 83.415 130.225 83.415H126.481C126.322 83.415 126.217 83.3095 126.217 83.1513V79.4327C126.217 79.2747 126.322 79.1693 126.481 79.1693H130.225C130.357 79.1693 130.489 79.2747 130.489 79.4327V83.1513ZM130.489 76.7692C130.489 76.9275 130.357 77.033 130.225 77.033H126.481C126.322 77.033 126.217 76.9275 126.217 76.7692V73.0247C126.217 72.8665 126.322 72.761 126.481 72.761H130.225C130.357 72.761 130.489 72.8665 130.489 73.0247V76.7692ZM165.696 41.3262H165.748C165.748 39.7702 164.456 38.478 162.874 38.478H35.5796C34.8149 38.478 34.0764 38.7945 33.5754 39.322C33.0479 39.823 32.7314 40.535 32.7314 41.3262H32.7841C32.9161 41.0625 33.2061 40.9043 33.7336 40.9043H164.773C165.274 40.9043 165.59 41.0625 165.696 41.3262ZM27.6419 122.075C28.9816 122.075 30.0679 120.989 30.0679 119.649C30.0679 118.309 28.9816 117.223 27.6419 117.223C26.3019 117.223 25.2156 118.309 25.2156 119.649C25.2156 120.989 26.3019 122.075 27.6419 122.075ZM157.099 58.5465H193.966C194.572 58.5465 195.047 59.0213 195.047 59.6278V118.726C195.047 119.332 194.572 119.807 193.966 119.807H157.099C156.492 119.807 156.017 119.332 156.017 118.726V115.192L159.446 115.456L159.472 117.407C159.498 117.829 159.841 118.172 160.263 118.172L192.568 117.592C192.99 117.592 193.333 117.223 193.333 116.801L192.357 63.689L192.331 62.265C192.331 62.1067 192.278 61.9747 192.199 61.843C192.041 61.632 191.803 61.5003 191.54 61.5003H191.513L190.221 61.5265L159.287 62.0802V61.421C159.287 60.999 159.63 60.6562 160.052 60.6562L179.593 60.709L159.525 59.2057C159.103 59.1795 158.707 59.496 158.681 59.9442L156.017 95.3873V59.6278C156.017 59.0213 156.492 58.5465 157.099 58.5465ZM180.278 70.1762H163.427V70.7565H180.278V70.1762ZM163.427 71.7852H180.278V72.3655H163.427V71.7852ZM174.239 73.394H174.213C173.712 73.5785 173.422 73.7632 173.343 73.9477H163.427V73.3675H174.239V73.394ZM180.279 73.974V73.552C180.279 73.5258 180.252 73.4993 180.226 73.4993C180.186 73.4863 180.153 73.4663 180.12 73.4465C180.087 73.4268 180.054 73.407 180.015 73.3938H175.479C174.899 73.4993 174.477 73.6048 174.292 73.6575C173.949 73.7895 173.765 73.895 173.659 73.974H180.279ZM180.278 75.0025H163.427V75.5825H180.278V75.0025ZM163.427 76.5847H180.278V77.1647H163.427V76.5847ZM180.278 78.1933H163.427V78.7732H180.278V78.1933ZM163.427 79.8018H180.278V80.382H163.427V79.8018ZM180.278 81.4108H163.427V81.991H180.278V81.4108ZM163.427 83.0192H180.278V83.5995H163.427V83.0192ZM180.278 84.628H163.427V85.208H180.278V84.628ZM163.427 86.2365H180.278V86.8165H163.427V86.2365ZM180.278 87.845H163.427V88.4252H180.278V87.845ZM163.427 89.454H180.278V90.0342H163.427V89.454ZM180.278 91.0625H163.427V91.6428H180.278V91.0625ZM163.427 92.6712H180.278V93.2513H163.427V92.6712ZM180.278 94.2535H163.427V94.8335H180.278V94.2535ZM163.427 95.862H180.278V96.4423H163.427V95.862ZM180.278 97.4705H163.427V98.0508H180.278V97.4705ZM163.427 99.0795H180.278V99.6598H163.427V99.0795ZM180.278 100.688H163.427V101.268H180.278V100.688ZM163.427 102.297H180.278V102.877H163.427V102.297ZM179.857 104.327C179.857 104.353 179.83 104.406 179.778 104.485H163.454V103.905H176.402L176.376 103.932C176.323 103.984 176.323 104.063 176.349 104.116C176.534 104.459 178.195 104.564 178.934 104.327C179.013 104.301 179.039 104.222 179.013 104.169C178.987 104.09 178.907 104.064 178.855 104.09C178.222 104.301 177.035 104.195 176.692 104.063C176.763 104.028 176.856 104.005 176.966 103.978C177.02 103.964 177.079 103.949 177.141 103.932H179.593C179.751 104.011 179.83 104.142 179.857 104.327ZM180.279 104.485V103.932H179.936C180.041 104.064 180.094 104.195 180.094 104.327C180.094 104.38 180.094 104.433 180.068 104.485H180.279ZM180.278 105.514H163.427V106.094H180.278V105.514ZM181.676 70.1762H189.719V78.2195H181.676V70.1762ZM189.719 79.2217H181.676V80.3822H189.719V79.2217ZM30.9646 32.518L32.0721 15.1658L29.6724 32.3863L26.8769 32.017L24.1871 31.6215L13.6913 30.171L13.6122 31.4105L26.4286 32.228H26.4551L30.9646 32.518ZM17.1981 18.0403C16.908 18.1458 16.6707 18.3304 16.4597 18.5414C16.5314 18.4936 16.6031 18.4434 16.6741 18.3936L16.6743 18.3935L16.6745 18.3934L16.6746 18.3933L16.6746 18.3933L16.6747 18.3932L16.6747 18.3932C16.8385 18.2785 16.9983 18.1666 17.1453 18.0931C17.2772 18.0667 17.4091 18.0403 17.5145 18.1194C17.62 18.1722 17.6728 18.2777 17.7255 18.4095C17.7795 18.5896 17.809 18.782 17.839 18.9782L17.839 18.9783C17.8529 19.0695 17.867 19.1614 17.8837 19.2534V19.2534C17.9101 19.4116 17.9365 19.5699 17.9892 19.7281C17.9892 19.7667 18.0034 19.7912 18.0213 19.8222V19.8222C18.0278 19.8336 18.0349 19.8458 18.042 19.8599C18.0607 19.8786 18.076 19.8973 18.0904 19.9148C18.1167 19.9467 18.1398 19.9748 18.1738 19.9918C18.3057 20.0709 18.4639 20.0709 18.5694 20.0182C18.7508 19.9501 18.8542 19.8431 18.9467 19.7474C18.9618 19.7318 18.9766 19.7165 18.9913 19.7017C19.0968 19.5962 19.2023 19.4644 19.2814 19.3325L19.5188 18.9369L19.5451 18.8842H19.5715H19.6242C19.6242 18.8842 19.6506 18.8842 19.6506 18.9106L19.7034 19.0952C19.7297 19.1742 19.7561 19.2467 19.7824 19.3192L19.7825 19.3193L19.7825 19.3195C19.8089 19.392 19.8352 19.4644 19.8616 19.5435C19.9407 19.7017 20.0198 19.8336 20.1253 19.9918C20.2308 20.1237 20.4418 20.2819 20.7055 20.2819C20.9692 20.2555 21.1274 20.1237 21.2329 20.0182C21.2934 19.9698 21.3427 19.927 21.3886 19.8872L21.3887 19.8871L21.3887 19.8871L21.3888 19.887L21.3889 19.887C21.443 19.84 21.4923 19.7972 21.5494 19.7545C21.6285 19.6753 21.7076 19.649 21.7867 19.6753C21.8658 19.6753 21.9449 19.7281 22.024 19.8336C22.1387 19.9673 22.2256 20.1564 22.315 20.3508C22.349 20.4247 22.3833 20.4993 22.4196 20.572C22.4724 20.7038 22.5515 20.862 22.6569 20.9939C22.6694 21.0064 22.6819 21.0203 22.695 21.035C22.7375 21.0825 22.7873 21.1382 22.8679 21.1785C22.9207 21.2049 22.9734 21.2312 23.0261 21.2312C23.1053 21.2576 23.158 21.2576 23.2107 21.2576C23.4481 21.2312 23.5799 21.073 23.6854 20.9412C23.7909 20.8357 23.87 20.7038 23.9491 20.572V20.572C24.1074 20.3346 24.292 20.0709 24.5029 20.0709C24.6084 20.0709 24.7403 20.1237 24.8458 20.2028C24.9513 20.2819 25.0569 20.4137 25.1359 20.5192C25.2941 20.7566 25.4524 21.0203 25.5841 21.284H25.6106V21.2576C25.5051 20.9939 25.3731 20.7302 25.2149 20.4665C25.1359 20.361 25.0304 20.2291 24.9249 20.1237C24.8194 20.0182 24.6875 19.9391 24.5293 19.9391C24.3711 19.9391 24.2392 20.0182 24.1337 20.1237L24.1337 20.1237C24.0282 20.2292 23.9228 20.3346 23.8437 20.4665C23.7645 20.5983 23.6854 20.7302 23.5799 20.8357C23.5008 20.9675 23.369 21.073 23.2371 21.073C23.1053 21.073 22.9734 20.9675 22.8943 20.862C22.8152 20.7302 22.7361 20.5983 22.6833 20.4665C22.6475 20.3949 22.6137 20.3214 22.5797 20.2475C22.4884 20.0492 22.3959 19.8483 22.2614 19.6753C22.1823 19.5435 22.0504 19.438 21.8922 19.4116C21.734 19.3589 21.5757 19.438 21.4439 19.5171C21.312 19.5962 21.2065 19.7017 21.101 19.8072L21.0824 19.8212C20.9803 19.8982 20.8561 19.9918 20.7318 19.9918C20.5736 20.0182 20.4418 19.9127 20.3626 19.8072C20.2835 19.7017 20.2044 19.5699 20.1517 19.438C20.1012 19.3538 20.0722 19.2589 20.0441 19.1669V19.1669H20.044C20.0281 19.1148 20.0125 19.0637 19.9934 19.0161C19.9934 18.9535 19.9769 18.9074 19.957 18.8517L19.957 18.8516L19.9496 18.831C19.9467 18.8227 19.9437 18.814 19.9407 18.8051C19.9143 18.726 19.8616 18.6732 19.7825 18.6469C19.6506 18.5677 19.4396 18.6469 19.3869 18.8051C19.3078 18.9106 19.2287 19.0424 19.1496 19.1743V19.1743C19.0704 19.3062 18.9913 19.438 18.8859 19.5435C18.8067 19.649 18.7013 19.7808 18.5694 19.8336C18.5167 19.8599 18.4375 19.8863 18.3848 19.8336C18.3057 19.8072 18.2793 19.7545 18.2529 19.6753C18.2002 19.5435 18.1738 19.4116 18.1475 19.2534C18.0947 18.9633 18.042 18.6732 17.9365 18.3831C17.8837 18.2513 17.7783 18.1194 17.6464 18.0403C17.5145 17.9612 17.3299 17.9876 17.1981 18.0403ZM15.5365 21.2841C15.7475 21.0731 15.9848 20.8885 16.2749 20.783C16.4067 20.7303 16.5913 20.7039 16.7232 20.783C16.8551 20.8622 16.9605 20.994 17.0133 21.1259C17.1188 21.4159 17.1715 21.706 17.2243 21.9961C17.2506 22.1543 17.277 22.2862 17.3297 22.4181C17.3561 22.4972 17.3825 22.5499 17.4616 22.5763C17.5143 22.629 17.5935 22.6027 17.6462 22.5763C17.7781 22.5235 17.8835 22.3917 17.9626 22.2862C18.0681 22.1807 18.1472 22.0489 18.2264 21.917C18.3055 21.7851 18.3846 21.6533 18.4637 21.5478C18.5164 21.3896 18.7274 21.3105 18.8593 21.3896C18.9384 21.4159 18.9911 21.4687 19.0175 21.5478C19.023 21.5643 19.0285 21.5796 19.0337 21.5943L19.0338 21.5944C19.0537 21.6501 19.0702 21.6962 19.0702 21.7588C19.0893 21.8064 19.1049 21.8576 19.1208 21.9096C19.149 22.0016 19.178 22.0965 19.2285 22.1807C19.2812 22.3126 19.3603 22.4444 19.4394 22.5499C19.5186 22.6554 19.6504 22.7609 19.8086 22.7345C19.9328 22.7345 20.057 22.6409 20.1592 22.5639L20.1778 22.5499C20.2833 22.4444 20.3888 22.3389 20.5207 22.2598C20.6525 22.1807 20.8108 22.1016 20.969 22.1543C21.1272 22.1807 21.2591 22.2862 21.3382 22.4181C21.4727 22.591 21.5652 22.7919 21.6565 22.9903C21.6905 23.0641 21.7243 23.1376 21.7601 23.2092C21.8129 23.3411 21.892 23.4729 21.9711 23.6048C22.0502 23.7103 22.1821 23.8157 22.3139 23.8157C22.4458 23.8157 22.5776 23.7103 22.6567 23.5784C22.7622 23.4729 22.8413 23.3411 22.9204 23.2092L22.9205 23.2092C22.9996 23.0774 23.105 22.9719 23.2105 22.8664L23.2105 22.8664C23.316 22.7609 23.4479 22.6818 23.6061 22.6818C23.7643 22.6818 23.8962 22.7609 24.0017 22.8664C24.1072 22.9719 24.2127 23.1037 24.2918 23.2092C24.45 23.4729 24.5819 23.7366 24.6873 24.0003V24.0267H24.661C24.5291 23.763 24.3709 23.4993 24.2127 23.2619C24.1335 23.1565 24.0281 23.0246 23.9226 22.9455C23.8171 22.8664 23.6852 22.8136 23.5797 22.8136C23.3688 22.8136 23.1842 23.0773 23.0259 23.3147V23.3147C22.9468 23.4466 22.8677 23.5784 22.7622 23.6839C22.6567 23.8157 22.5249 23.974 22.2875 24.0003C22.2348 24.0003 22.1821 24.0003 22.1029 23.974C22.0502 23.974 21.9975 23.9476 21.9447 23.9212C21.8641 23.8809 21.8143 23.8253 21.7718 23.7777C21.7586 23.763 21.7462 23.7491 21.7337 23.7366C21.6283 23.6048 21.5491 23.4465 21.4964 23.3147C21.4601 23.242 21.4258 23.1674 21.3918 23.0935C21.3024 22.8991 21.2155 22.71 21.1008 22.5763C21.0217 22.4708 20.9426 22.4181 20.8635 22.4181C20.7844 22.3917 20.7053 22.4181 20.6262 22.4972C20.569 22.54 20.5197 22.5828 20.4655 22.6299C20.4195 22.6697 20.3702 22.7125 20.3097 22.7609C20.2042 22.8664 20.046 22.9982 19.7823 23.0246C19.5186 23.051 19.3076 22.8664 19.2021 22.7345C19.0966 22.5763 19.0175 22.4444 18.9384 22.2862C18.912 22.2071 18.8857 22.1346 18.8593 22.0621C18.8329 21.9895 18.8065 21.917 18.7802 21.8379L18.7274 21.6533C18.7274 21.6269 18.701 21.6269 18.701 21.6269H18.6483H18.6219L18.5956 21.6797L18.3582 22.0752C18.2791 22.2071 18.1736 22.3389 18.0681 22.4444C18.0534 22.4592 18.0386 22.4745 18.0235 22.4901C17.931 22.5858 17.8276 22.6929 17.6462 22.7609C17.5407 22.8136 17.3825 22.8136 17.2506 22.7345C17.2166 22.7175 17.1935 22.6895 17.1672 22.6575C17.1528 22.64 17.1375 22.6213 17.1188 22.6027C17.1117 22.5885 17.1046 22.5763 17.0981 22.565V22.5649C17.0802 22.5339 17.066 22.5094 17.066 22.4708C17.0133 22.3126 16.9869 22.1544 16.9605 21.9961V21.9961C16.9438 21.9041 16.9297 21.8122 16.9158 21.721V21.721C16.8858 21.5247 16.8563 21.3323 16.8023 21.1522C16.7496 21.0204 16.6968 20.9149 16.5913 20.8622C16.4859 20.783 16.354 20.8094 16.2221 20.8358C16.0837 20.9149 15.9008 21.0385 15.7178 21.1621C15.6568 21.2033 15.5958 21.2445 15.5365 21.2841ZM15.3784 24.0261L15.3783 24.0262C15.3519 24.0529 15.3257 24.0795 15.2996 24.1057C15.5369 23.9211 15.7742 23.7365 15.9325 23.6574C16.0643 23.6047 16.2226 23.5783 16.3544 23.6574C16.4863 23.7101 16.5654 23.842 16.6181 23.9739C16.7236 24.2059 16.7616 24.438 16.7996 24.6701V24.6701L16.7996 24.6702V24.6702V24.6703L16.7996 24.6703V24.6704V24.6704L16.7996 24.6705V24.6705V24.6706L16.7997 24.6706V24.6707V24.6707L16.7997 24.6708V24.6708V24.6709L16.7997 24.6709C16.8091 24.7287 16.8186 24.7864 16.8291 24.8441C16.8555 25.0023 16.8818 25.1605 16.9346 25.2925C16.9388 25.3008 16.9429 25.3098 16.9473 25.3193C16.9706 25.3695 16.9998 25.4325 17.0664 25.477C17.1456 25.5298 17.2247 25.5298 17.3038 25.5035C17.4095 25.461 17.4983 25.368 17.5837 25.2783C17.6048 25.256 17.6257 25.2343 17.6466 25.2133C17.7521 25.0815 17.8312 24.976 17.9103 24.8441C17.9894 24.7386 18.0685 24.6068 18.1477 24.4749C18.2004 24.3431 18.3586 24.2903 18.4905 24.3431C18.5432 24.3694 18.596 24.4222 18.6223 24.4749C18.6366 24.5035 18.6432 24.5398 18.6504 24.5796C18.6564 24.6133 18.663 24.6496 18.6751 24.6859C18.7015 24.7518 18.7278 24.8243 18.7542 24.8969C18.7806 24.9694 18.8069 25.042 18.8333 25.1078C18.8597 25.1518 18.8831 25.1988 18.9066 25.2455C18.9535 25.3393 19.0003 25.433 19.0707 25.5035C19.1498 25.6353 19.308 25.7143 19.4662 25.7143C19.6245 25.688 19.7563 25.6088 19.8618 25.5035L19.8618 25.5033C19.9673 25.398 20.0728 25.2925 20.2046 25.2133C20.3101 25.1343 20.4683 25.0815 20.6002 25.1078C20.732 25.1343 20.8639 25.2398 20.943 25.3453C21.0775 25.518 21.17 25.719 21.2613 25.9173C21.2953 25.9913 21.3292 26.0648 21.365 26.1363C21.4177 26.2683 21.4968 26.4 21.5759 26.5318H21.5759C21.6814 26.6373 21.8133 26.7693 21.9715 26.7428C22.1101 26.7428 22.2082 26.6418 22.3013 26.5458L22.3015 26.5455H22.3016L22.3017 26.5453L22.3024 26.5445C22.3152 26.5315 22.328 26.5183 22.3407 26.5055C22.4462 26.3738 22.5253 26.2683 22.6044 26.1363C22.6225 26.1138 22.6398 26.0918 22.6566 26.0708C22.7378 25.9683 22.8071 25.8808 22.8945 25.7935C23 25.688 23.1318 25.6088 23.2901 25.6088C23.4483 25.6088 23.5802 25.688 23.6856 25.7935C23.8175 25.899 23.8966 26.0045 23.9757 26.1363C24.134 26.3738 24.2658 26.6638 24.3713 26.9275H24.3977V26.901C24.3186 26.611 24.2131 26.321 24.0548 26.0573H24.0548C23.9757 25.9253 23.8966 25.7935 23.7911 25.688C23.6856 25.5825 23.5274 25.477 23.3428 25.4508C23.1318 25.4508 22.9472 25.5563 22.8418 25.6615C22.7099 25.7935 22.6044 25.899 22.5253 26.0308C22.4741 26.1163 22.4118 26.1905 22.3527 26.261H22.3527H22.3527C22.3206 26.2993 22.2894 26.3365 22.2616 26.3738C22.1561 26.479 22.0506 26.5318 21.9979 26.5318C21.866 26.5583 21.7078 26.2945 21.6023 26.0308C21.5929 26.0073 21.5834 25.9835 21.5739 25.9595L21.5738 25.959L21.5737 25.9588C21.4769 25.7148 21.3723 25.4508 21.1804 25.187C21.1012 25.0288 20.9166 24.8969 20.7057 24.8441C20.4947 24.7914 20.2574 24.8705 20.1255 24.976C20.0214 25.028 19.9402 25.1028 19.8668 25.1705H19.8667C19.8285 25.2058 19.7924 25.239 19.7563 25.266C19.6508 25.3453 19.5453 25.398 19.4926 25.398C19.4399 25.398 19.3871 25.3715 19.308 25.2925C19.2289 25.2133 19.1761 25.1078 19.1234 24.976C19.097 24.91 19.0773 24.8441 19.0575 24.7782C19.0377 24.7123 19.0179 24.6463 18.9915 24.5804L18.9652 24.4749C18.9465 24.4563 18.9411 24.4376 18.9301 24.4003C18.9256 24.3849 18.9202 24.3662 18.9124 24.3431C18.8861 24.2376 18.7806 24.1321 18.6487 24.0793C18.5432 24.0266 18.4114 24.0266 18.2795 24.0793C18.2268 24.1057 18.174 24.1321 18.1213 24.1848C18.0685 24.2376 18.0158 24.2903 18.0158 24.3167C17.9778 24.4116 17.9262 24.4929 17.8707 24.5802C17.8491 24.6141 17.827 24.649 17.8048 24.6859C17.7257 24.8177 17.6466 24.9232 17.5675 25.0288C17.4884 25.1343 17.3829 25.2398 17.3038 25.266H17.251C17.251 25.266 17.251 25.2398 17.2247 25.2398C17.2247 25.2265 17.2181 25.2133 17.2115 25.2C17.2049 25.187 17.1983 25.1738 17.1983 25.1605C17.152 25.068 17.1261 24.935 17.1026 24.8148L17.1025 24.8145L17.1024 24.8137C17.0992 24.7972 17.096 24.7809 17.0928 24.765L17.0843 24.7179C17.0342 24.4409 16.9802 24.1428 16.8555 23.8684C16.8027 23.7365 16.6709 23.5783 16.5126 23.4992C16.3544 23.4201 16.1434 23.4728 16.0116 23.5255C15.7576 23.641 15.5642 23.8374 15.3784 24.0261H15.3784ZM42.1984 17.5129C42.5624 17.5129 42.8576 17.2178 42.8576 16.8536C42.8576 16.4895 42.5624 16.1944 42.1984 16.1944C41.8341 16.1944 41.5391 16.4895 41.5391 16.8536C41.5391 17.2178 41.8341 17.5129 42.1984 17.5129ZM66.5654 34.496H76.7446C77.5886 34.496 78.2744 33.784 78.3006 32.94C78.3006 32.0698 77.5886 31.384 76.7446 31.384H66.5654C65.6951 31.384 65.0096 32.0963 65.0096 32.94C65.0096 33.8103 65.7216 34.496 66.5654 34.496ZM22.1458 50.5482V48.6495H5.08357V50.5482H22.1458ZM22.1365 53.1235V55.0223H5.0743V53.1235H22.1365ZM22.154 59.496V57.5973H5.0918V59.496H22.154ZM22.1448 62.0708V63.9695H5.08255V62.0708H22.1448ZM22.1499 142.852V140.953H5.0877V142.852H22.1499ZM39.4109 144.433V146.332H5.07532V144.433H39.4109ZM53.2216 135.208C53.2216 139.639 56.8346 143.252 61.2649 143.252C61.6341 143.252 61.9244 142.962 61.9244 142.592C61.9244 142.223 61.6341 141.933 61.2649 141.933C57.5466 141.933 54.5404 138.927 54.5404 135.208C54.5404 131.49 57.5466 128.484 61.2649 128.484C61.6341 128.484 61.9244 128.193 61.9244 127.824C61.9244 127.455 61.6341 127.165 61.2649 127.165C56.8346 127.165 53.2216 130.778 53.2216 135.208ZM61.2646 146.047C55.2784 146.047 50.4259 141.194 50.4259 135.208C50.4259 129.222 55.2784 124.369 61.2646 124.369C61.6339 124.369 61.9239 124.659 61.9239 125.029C61.9239 125.398 61.6339 125.688 61.2646 125.688C56.0166 125.688 51.7446 129.96 51.7446 135.208C51.7446 140.456 56.0166 144.728 61.2646 144.728C61.6339 144.728 61.9239 145.018 61.9239 145.387C61.9239 145.757 61.6339 146.047 61.2646 146.047ZM69.3609 123.156L75.7689 121.205V125.108L69.3609 123.156ZM128.565 122.761V123.552C128.565 123.869 128.301 124.159 127.958 124.159H124.161V122.155H127.958C128.301 122.155 128.565 122.418 128.565 122.761ZM121.602 126.453V124.844H118.86C118.728 124.844 118.596 124.95 118.596 125.108C118.596 125.266 118.728 125.371 118.86 125.371H121.075V126.4H121.391C121.454 126.4 121.5 126.417 121.556 126.437L121.574 126.443C121.583 126.446 121.592 126.45 121.602 126.453ZM179.988 143.252H64.7191C64.3499 143.252 64.0596 142.962 64.0596 142.592C64.0596 142.223 64.3499 141.933 64.7191 141.933H179.988C180.357 141.933 180.647 142.223 180.647 142.592C180.647 142.962 180.357 143.252 179.988 143.252ZM64.7191 146.047H179.988C180.357 146.047 180.647 145.757 180.647 145.388C180.647 145.018 180.357 144.728 179.988 144.728H64.7191C64.3499 144.728 64.0596 145.018 64.0596 145.388C64.0596 145.757 64.3499 146.047 64.7191 146.047ZM157.612 129.7L155.842 132.195L157.111 133.095L158.881 130.6L157.612 129.7ZM159.815 129.327L161.582 126.822L160.289 125.925L158.523 128.43L159.815 129.327ZM10.2004 100.926V99.37H2.5V100.926H10.2004ZM192.575 45.396V46.9518H184.874V45.396H192.575Z" stroke="#293449" stroke-width="0.25"/>
<path d="M32.9941 69.7808H22.0499C21.628 69.7808 21.2852 69.438 21.2852 69.016V68.014H33.7589V68.9898C33.7589 69.438 33.4159 69.7808 32.9941 69.7808Z" fill="#2E3740"/>
<path opacity="0.11" d="M196.391 22.4444H193.833C193.174 17.8031 189.192 14.2429 184.366 14.2429C179.091 14.2429 174.793 18.5151 174.793 23.8157C174.793 29.1163 179.065 33.3885 184.366 33.3885C189.35 33.3885 193.464 29.5648 193.886 24.686H196.391C196.997 24.686 197.498 24.1849 197.498 23.5784C197.525 22.9455 197.024 22.4444 196.391 22.4444Z" fill="#020202"/>
<path d="M41.144 125.24H14.1398C13.7706 125.24 13.4805 124.95 13.4805 124.581V69.069C13.4805 68.6998 13.7706 68.4098 14.1398 68.4098H41.144C41.5132 68.4098 41.8032 68.6998 41.8032 69.069V124.581C41.8032 124.924 41.5132 125.24 41.144 125.24ZM14.1398 68.6735C13.9288 68.6735 13.7442 68.858 13.7442 69.069V124.581C13.7442 124.792 13.9288 124.976 14.1398 124.976H41.144C41.355 124.976 41.5395 124.792 41.5395 124.581V69.069C41.5395 68.858 41.355 68.6735 41.144 68.6735H14.1398Z" fill="#2E3740"/>
<path opacity="0.14" d="M140.615 60.709H57.8093C56.9918 60.709 55.8313 60.2608 55.2248 59.6805L39.613 45.0708C38.4528 43.9898 38.4528 43.093 39.6393 43.093H158.785C159.972 43.093 159.972 43.9898 158.811 45.0708L143.2 59.6805C142.593 60.2608 141.433 60.709 140.615 60.709Z" fill="white" fill-opacity="0.1"/>
<path opacity="0.11" d="M136.292 68.5412H64.7726C64.3508 68.5412 64.0078 68.1985 64.0078 67.7765V65.825C64.0078 65.4032 64.3508 65.0602 64.7726 65.0602H136.292C136.714 65.0602 137.056 65.4032 137.056 65.825V67.7765C137.03 68.1985 136.714 68.5412 136.292 68.5412Z" fill="#020202"/>
<path d="M62.1884 68.5412H57.2569C56.9666 68.5412 56.7031 68.304 56.7031 67.9875V65.614C56.7031 65.324 56.9404 65.0602 57.2569 65.0602H62.1884C62.4784 65.0602 62.7421 65.2977 62.7421 65.614V67.9875C62.7156 68.304 62.4784 68.5412 62.1884 68.5412Z" fill="#2E3740"/>
<path d="M141.407 68.5412H138.769C138.532 68.5412 138.348 68.3567 138.348 68.1192V65.4822C138.348 65.245 138.532 65.0602 138.769 65.0602H141.407C141.644 65.0602 141.829 65.245 141.829 65.4822V68.1192C141.802 68.3567 141.618 68.5412 141.407 68.5412Z" fill="#2E3740"/>
<path opacity="0.11" d="M64.4562 77.033H57.4415C57.2832 77.033 57.1777 76.9275 57.1777 76.7692V73.0245C57.1777 72.8662 57.2832 72.7607 57.4415 72.7607H64.4562C64.6145 72.7607 64.72 72.8662 64.72 73.0245V76.7427C64.72 76.901 64.5882 77.033 64.4562 77.033Z" fill="#020202"/>
<path opacity="0.11" d="M136.871 87.6608H133.1V89.7968H136.871V87.6608Z" fill="#020202"/>
<path opacity="0.11" d="M136.871 85.1025H133.1V87.2385H136.871V85.1025Z" fill="#020202"/>
<path opacity="0.11" d="M131.808 87.6608H128.037V89.7968H131.808V87.6608Z" fill="#020202"/>
<path opacity="0.11" d="M141.961 87.6608H138.189V89.7968H141.961V87.6608Z" fill="#020202"/>
<path opacity="0.11" d="M64.4562 89.5593H57.4415C57.2832 89.5593 57.1777 89.4538 57.1777 89.2955V85.5773C57.1777 85.419 57.2832 85.3135 57.4415 85.3135H64.4562C64.6145 85.3135 64.72 85.419 64.72 85.5773V89.2955C64.72 89.4275 64.5882 89.5593 64.4562 89.5593Z" fill="#020202"/>
<path opacity="0.11" d="M141.696 77.033H134.682C134.523 77.033 134.418 76.9275 134.418 76.7692V73.0245C134.418 72.8662 134.523 72.7607 134.682 72.7607H141.696C141.855 72.7607 141.96 72.8662 141.96 73.0245V76.7427C141.96 76.901 141.828 77.033 141.696 77.033Z" fill="#020202"/>
<path opacity="0.11" d="M141.696 83.4148H134.682C134.523 83.4148 134.418 83.3093 134.418 83.151V79.4328C134.418 79.2745 134.523 79.169 134.682 79.169H141.696C141.855 79.169 141.96 79.2745 141.96 79.4328V83.151C141.96 83.2828 141.828 83.4148 141.696 83.4148Z" fill="#020202"/>
<path opacity="0.11" d="M73.1841 83.441H57.4141C57.2559 83.441 57.1504 83.3355 57.1504 83.1775V79.459C57.1504 79.3007 57.2559 79.1953 57.4141 79.1953H73.1841C73.3424 79.1953 73.4479 79.3007 73.4479 79.459V83.1775C73.4479 83.3092 73.3424 83.441 73.1841 83.441Z" fill="#020202"/>
<path d="M41.144 136.447H14.1398C13.7706 136.447 13.4805 136.158 13.4805 135.788V128.958C13.4805 128.589 13.7706 128.299 14.1398 128.299H41.144C41.5132 128.299 41.8032 128.589 41.8032 128.958V135.788C41.8032 136.158 41.5132 136.447 41.144 136.447ZM14.1398 128.562C13.9288 128.562 13.7442 128.747 13.7442 128.958V135.788C13.7442 135.999 13.9288 136.184 14.1398 136.184H41.144C41.355 136.184 41.5395 135.999 41.5395 135.788V128.958C41.5395 128.747 41.355 128.562 41.144 128.562H14.1398Z" fill="#2E3740"/>
<path opacity="0.31" d="M39.4036 83.2565H30.0684V94.9128H39.4036V83.2565Z" stroke="#293449" stroke-width="0.25"/>
<path opacity="0.31" d="M33.1009 102.481H24.8203V107.386H33.1009V102.481Z" stroke="#293449" stroke-width="0.25"/>
<path opacity="0.31" d="M39.4031 108.177H15.6426V113.241H39.4031V108.177Z" stroke="#293449" stroke-width="0.25"/>
<path d="M36.0017 123.605H19.0449V123.816H36.0017V123.605Z" fill="#2E3740"/>
<path d="M159.444 114.322C159.313 114.19 159.207 113.979 159.207 113.768L159.234 102.771L159.444 114.322Z" fill="white" fill-opacity="0.1"/>
<path d="M191.828 61.5268V61.6585C191.802 61.6585 191.775 61.6585 191.749 61.6585L190.272 61.553L179.645 60.7355L191.09 60.762C191.485 60.762 191.828 61.1048 191.828 61.5268Z" fill="white" fill-opacity="0.1"/>
<path d="M196.34 23.8158H191.936V21.9698C191.936 21.7588 192.12 21.6006 192.305 21.6006H196.34C196.946 21.6006 197.447 22.1016 197.447 22.7082C197.447 23.3147 196.946 23.8158 196.34 23.8158Z" fill="#F2F2F2" fill-opacity="0.5"/>
<path d="M183.1 32.7817C188.387 32.7817 192.673 28.496 192.673 23.209C192.673 17.9221 188.387 13.6362 183.1 13.6362C177.813 13.6362 173.527 17.9221 173.527 23.209C173.527 28.496 177.813 32.7817 183.1 32.7817Z" fill="white" fill-opacity="0.1"/>
<path d="M190.328 26.968C192.426 22.7735 190.725 17.673 186.531 15.5757C182.336 13.4785 177.236 15.1786 175.139 19.3731C173.041 23.5677 174.742 28.6682 178.936 30.7655C183.131 32.8627 188.231 31.1625 190.328 26.968Z" fill="#2E3740"/>
<path opacity="0.05" d="M185.368 29.881C185.078 29.881 184.788 29.6965 184.656 29.4062C184.471 29.0107 184.656 28.536 185.051 28.3515C185.737 28.035 186.37 27.613 186.897 27.112C187.346 26.69 188.743 25.3453 188.743 23.2882C188.743 21.6004 187.794 20.361 187.372 19.9127C187.082 19.5962 187.108 19.0951 187.425 18.8051C187.741 18.515 188.242 18.5413 188.532 18.8578C189.06 19.438 190.299 21.0466 190.299 23.2882C190.299 25.1078 189.508 26.7955 187.979 28.2725C187.346 28.879 186.555 29.4062 185.711 29.802C185.605 29.8547 185.473 29.881 185.368 29.881Z" fill="white" fill-opacity="0.1"/>
<path opacity="0.05" d="M182.23 30.593C181.861 30.593 181.492 30.5667 181.123 30.514C180.701 30.4612 180.384 30.0392 180.463 29.6172C180.543 29.1952 180.938 28.879 181.36 28.958C182.547 29.1425 183.865 28.9315 185.052 28.4042C185.448 28.2195 185.922 28.4042 186.107 28.7997C186.291 29.1952 186.107 29.67 185.711 29.8545C184.604 30.3292 183.391 30.593 182.23 30.593Z" fill="white" fill-opacity="0.1"/>
<path opacity="0.3" d="M182.23 30.593C181.861 30.593 181.492 30.5667 181.123 30.514C180.701 30.4612 180.384 30.0392 180.463 29.6172C180.543 29.1952 180.938 28.879 181.36 28.958C182.547 29.1425 183.865 28.9315 185.052 28.4042C185.448 28.2195 185.922 28.4042 186.107 28.7997C186.291 29.1952 186.107 29.67 185.711 29.8545C184.604 30.3292 183.391 30.593 182.23 30.593Z" fill="white" fill-opacity="0.1"/>
<path opacity="0.05" d="M181.227 30.514C181.175 30.514 181.149 30.514 181.096 30.514C180.305 30.382 179.566 30.1447 178.88 29.7755C176.744 28.6415 175.821 26.69 175.505 25.899C174.819 24.132 174.846 22.2333 175.584 20.2818C175.953 19.3061 176.507 18.3831 177.246 17.5919C177.536 17.2755 178.037 17.2491 178.353 17.5392C178.67 17.8293 178.696 18.3303 178.406 18.6468C177.826 19.3061 177.377 20.0181 177.061 20.8356C176.454 22.4179 176.428 23.9211 176.955 25.3187C177.193 25.9252 177.931 27.4812 179.593 28.3515C180.12 28.6415 180.7 28.8262 181.307 28.9052C181.729 28.958 182.045 29.38 181.966 29.8017C181.94 30.2237 181.623 30.514 181.227 30.514Z" fill="white" fill-opacity="0.1"/>
<path opacity="0.12" d="M182.31 26.1893C181.334 26.1893 180.358 25.8728 179.62 25.3188C177.906 24.0267 177.695 21.6269 178.38 19.9655C179.356 17.5657 181.861 17.0647 182.151 17.0119C182.442 16.9592 182.705 17.1438 182.758 17.4339C182.811 17.7239 182.626 17.9877 182.336 18.0404C182.257 18.0668 180.147 18.4623 179.356 20.3611C178.829 21.6269 178.987 23.4993 180.253 24.475C180.965 25.0025 181.914 25.2398 182.863 25.0815C183.681 24.9497 184.367 24.5541 184.762 23.974C185.263 23.2356 185.395 22.128 185.052 21.1258C184.841 20.5193 184.499 20.071 184.129 19.9655C183.813 19.86 183.312 19.9391 182.863 20.2029C182.362 20.4929 181.993 20.9412 181.888 21.4159C181.809 21.8642 181.914 22.5763 182.336 22.7609C182.732 22.9455 183.233 22.6026 183.259 22.6026C183.496 22.4444 183.839 22.5235 183.997 22.7609C184.156 22.9982 184.077 23.341 183.839 23.4993C183.681 23.6048 182.784 24.1322 181.914 23.7366C180.886 23.2883 180.727 21.9697 180.859 21.205C181.017 20.4402 181.545 19.7545 182.336 19.3062C183.048 18.8843 183.839 18.7788 184.446 18.9634C185.131 19.2007 185.712 19.86 186.028 20.8094C186.371 21.8379 186.45 23.3674 185.606 24.5805C185.026 25.398 184.103 25.9783 182.995 26.1365C182.784 26.1893 182.547 26.1893 182.31 26.1893Z" fill="white" fill-opacity="0.1"/>
<path opacity="0.11" d="M146.418 63.8737V75.82L52.0879 63.8737C52.0879 62.3705 53.3009 61.131 54.8304 61.131H143.702C145.205 61.131 146.418 62.3442 146.418 63.8737Z" fill="#020202"/>
<path fill-rule="evenodd" clip-rule="evenodd" d="M13.6906 30.1712L13.7756 28.8742L12.6527 28.5902L12.4512 30.013L13.6906 30.1712Z" fill="white" fill-opacity="0.3"/>
<path d="M93.2272 29.4592H39.6144C39.0342 29.4592 38.5859 28.9845 38.5859 28.4307V15.3505C38.5859 14.7703 39.0607 14.322 39.6144 14.322H93.2272C93.8074 14.322 94.2557 14.7967 94.2557 15.3505V28.4307C94.2557 28.9845 93.7812 29.4592 93.2272 29.4592ZM39.6144 14.6385C39.2189 14.6385 38.9024 14.9549 38.9024 15.3505V28.4307C38.9024 28.8262 39.2189 29.1427 39.6144 29.1427H93.2272C93.6229 29.1427 93.9394 28.8262 93.9394 28.4307V15.3505C93.9394 14.9549 93.6229 14.6385 93.2272 14.6385H39.6144Z" fill="#2E3740"/>
<path opacity="0.11" d="M68.3323 20.2556H41.75V22.0225H68.3323V20.2556Z" stroke="#293449" stroke-width="0.25"/>
<path opacity="0.11" d="M90.3796 23.2092H41.6191V24.9761H90.3796V23.2092Z" stroke="#293449" stroke-width="0.25"/>
<path opacity="0.11" d="M144.226 34.9685V27.8745H127.164V34.9685H144.226Z" fill="#020202"/>
<path d="M98.6855 135.34H97.367V135.076H98.6855V135.34ZM96.0485 135.34H94.73V135.076H96.0485V135.34ZM93.4113 135.34H92.0928V135.076H93.4113V135.34ZM90.7743 135.34H89.4558V135.076H90.7743V135.34ZM88.137 135.34H86.8185V135.076H88.137V135.34ZM85.5 135.34H84.1815V135.076H85.5V135.34ZM82.8628 135.34H81.5443V135.076H82.8628V135.34ZM80.2258 135.34H78.9073V135.076H80.2258V135.34ZM77.5885 135.34H76.27V135.076H77.5885V135.34ZM74.9515 135.34H73.6328V135.076H74.9515V135.34ZM72.3143 135.34H70.9958V135.076H72.3143V135.34ZM69.6773 135.34H68.3585V135.076H69.6773V135.34ZM67.04 135.34H65.7215V135.076H67.04V135.34ZM64.403 135.34H63.0843V135.076H64.403V135.34ZM61.7658 135.34H60.4473V135.076H61.7658V135.34ZM99.714 134.812H99.4505V133.494H99.714V134.812ZM99.714 132.175H99.4505V130.857H99.714V132.175ZM99.714 129.538H99.4505V128.219H99.714V129.538ZM99.714 126.901H99.4505V125.582H99.714V126.901ZM99.714 124.264H99.4505V122.945H99.714V124.264ZM99.714 121.627H99.4505V120.308H99.714V121.627ZM99.714 118.99H99.4505V117.671H99.714V118.99ZM99.714 116.353H99.4505V115.034H99.714V116.353ZM99.714 113.715H99.4505V112.397H99.714V113.715ZM99.714 111.078H99.4505V109.76H99.714V111.078ZM99.714 108.441H99.4505V107.122H99.714V108.441Z" fill="#2E3740"/>
<path d="M60.9475 137.634C62.2875 137.634 63.3737 136.548 63.3737 135.208C63.3737 133.868 62.2875 132.782 60.9475 132.782C59.6077 132.782 58.5215 133.868 58.5215 135.208C58.5215 136.548 59.6077 137.634 60.9475 137.634Z" fill="white" fill-opacity="0.3"/>
<path opacity="0.11" fill-rule="evenodd" clip-rule="evenodd" d="M83.8919 114.981H114.588C115.907 114.981 116.962 113.926 116.935 112.634V94.9917C116.935 93.6997 115.88 92.6447 114.588 92.6447H83.8919C82.5997 92.6447 81.5449 93.6997 81.5449 94.9917V112.634C81.5449 113.926 82.5997 114.981 83.8919 114.981ZM99.6204 107.42C97.8654 107.49 96.9422 106.003 97.2074 104.568C97.4287 103.371 98.0409 102.594 99.6204 102.594C101.2 102.594 102.033 104.261 102.033 104.919C102.033 105.577 101.814 107.332 99.6204 107.42Z" fill="#020202"/>
</svg>

